<svg xmlns="http://www.w3.org/2000/svg" width="156" height="54" viewBox="0 0 156 54" fill="none">
<rect width="54" height="54" rx="8" fill="white"/>
<path d="M139.729 9.72144H142.942L145.045 14.6284L147.119 20.0027H147.703L149.835 14.6284L151.967 9.72144H155.151L148.988 23.2156V27.3632C148.988 29.2033 147.937 30.0504 146.359 30.0504H139.758V27.5677H145.921V23.1864L139.729 9.72144Z" fill="white"/>
<path d="M135.742 22.573H139.919V25.0849H135.275C133.347 25.0849 132.675 24.0626 132.675 22.573V3.58765H135.742V22.573Z" fill="white"/>
<path d="M126.319 22.573H130.496V25.0849H125.852C123.924 25.0849 123.252 24.0626 123.252 22.573V12.2624H120.302V9.72133H123.252V4.69751H126.319V9.72133H130.175V12.2624H126.319V22.573Z" fill="white"/>
<path d="M110.01 20.3532C110.01 22.0473 111.353 23.0696 113.456 23.0696C115.413 23.0696 116.582 22.2225 116.582 20.7913C116.582 19.2725 115.355 18.9804 114.683 18.8636L111.558 18.2794C108.579 17.7537 107.323 16.1764 107.323 14.1318C107.323 11.211 109.689 9.42932 113.281 9.42932C117.224 9.42932 119.327 11.2694 119.298 14.2195H116.436C116.377 12.467 115.151 11.7368 113.369 11.7368C111.441 11.7368 110.448 12.5546 110.448 13.8398C110.448 15.417 111.938 15.6799 112.755 15.8259L115.676 16.3225C118.626 16.8482 119.795 18.4839 119.795 20.5285C119.795 23.5369 117.283 25.377 113.456 25.377C109.513 25.377 107.031 23.4493 107.06 20.3532H110.01Z" fill="white"/>
<path d="M104.58 9.72144V25.085H101.922L101.513 22.2518H100.87C100.023 24.2087 98.0957 25.3771 95.8175 25.3771C92.5461 25.3771 90.8521 23.3033 90.8521 20.2364V9.72144H93.9481V19.3017C93.9481 21.6676 95.2333 22.8067 97.2194 22.8067C99.9358 22.8067 101.484 20.8206 101.484 17.8997V9.72144H104.58Z" fill="white"/>
<path d="M68.7891 25.0849V3.79211H72.0312V12.8467H83.4808V3.79211H86.7229V25.0849H83.4808V15.6507H72.0312V25.0849H68.7891Z" fill="white"/>
<path d="M134.964 41.2893C134.964 36.4115 137.622 33.5199 141.887 33.5199C145.859 33.5199 148.429 36.061 148.429 40.267C148.429 40.7051 148.4 41.2893 148.342 41.7274H136.863V42.6037C136.863 45.6121 138.878 47.6275 141.974 47.6275C144.369 47.6275 146.122 46.3131 146.648 44.4438H148.488C147.874 47.3062 145.216 49.2047 141.887 49.2047C137.622 49.2047 134.964 46.1671 134.964 41.2893ZM136.863 40.2086H146.589V39.5368C146.589 36.8788 144.691 35.0971 141.887 35.0971C138.937 35.0971 136.863 36.9665 136.863 39.7413V40.2086Z" fill="white"/>
<path d="M132.908 43.918C132.383 47.1309 129.958 49.2047 126.483 49.2047C122.13 49.2047 119.589 46.0794 119.589 41.3769C119.589 36.3531 122.481 33.5199 126.57 33.5199C129.812 33.5199 132.266 35.4768 132.821 38.5437H130.981C130.367 36.1778 128.615 35.1264 126.483 35.1264C123.562 35.1264 121.488 37.317 121.488 40.413V42.6037C121.488 45.6121 123.474 47.6275 126.483 47.6275C128.878 47.6275 130.63 46.1963 131.068 43.918H132.908Z" fill="white"/>
<path d="M103.99 44.6774C103.99 41.9027 105.86 40.5883 108.634 40.4423L114.184 40.1502V38.164C114.184 36.1194 112.84 35.0679 110.328 35.0679C107.67 35.0679 106.444 36.2655 106.444 38.3977H104.691C104.633 35.4768 106.561 33.5199 110.328 33.5199C113.483 33.5199 115.995 34.8051 115.995 38.164V47.423H118.974V48.9126H114.564V46.0502H114.184C113.308 47.9488 111.175 49.2047 108.751 49.2047C105.947 49.2047 103.99 47.5399 103.99 44.6774ZM105.889 44.3854V45.174C105.889 46.6636 107.174 47.6567 109.131 47.6567C111.438 47.6567 113.395 46.3131 114.155 44.2101L114.184 41.5814L108.985 41.8735C106.765 41.9903 105.889 43.0126 105.889 44.3854Z" fill="white"/>
<path d="M88.0747 33.812H89.7688L89.9148 36.4407H90.3822C91.2292 34.6882 93.303 33.5199 95.5228 33.5199C99.4659 33.5199 101.773 36.2947 101.773 41.2309C101.773 46.1671 99.4659 48.9418 95.5228 48.9418C93.1277 48.9418 91.2876 47.8611 90.3822 46.021H89.9148V53.7904H88.0747V33.812ZM89.9148 40.1794V42.2824C89.9148 45.32 92.0762 47.3646 95.1723 47.3646C98.0639 47.3646 99.8748 45.5537 99.8748 42.8665V39.5952C99.8748 36.9081 98.0639 35.0971 95.1723 35.0971C92.0762 35.0971 89.9148 37.1417 89.9148 40.1794Z" fill="white"/>
<path d="M69.9572 42.37C70.0448 45.9334 72.5567 47.5983 76.1786 47.5983C79.6251 47.5983 81.9326 45.9918 81.9326 43.1586C81.9326 40.1502 79.3331 39.566 78.3108 39.3323L74.3969 38.4269C72.5275 37.9888 68.6136 37.1125 68.6136 32.9942C68.6136 29.4308 71.5345 27.3278 75.7989 27.3278C80.2093 27.3278 83.1885 29.5184 83.2762 33.4323H81.3484C81.1732 30.4822 79.0994 28.9342 75.8281 28.9342C72.5275 28.9342 70.5998 30.5115 70.5998 32.8481C70.5998 35.5353 73.1993 36.2071 74.6889 36.5284L78.8657 37.463C82.5168 38.2809 83.948 40.3546 83.948 43.0126C83.948 46.9849 80.7643 49.2047 76.0909 49.2047C70.4537 49.2047 67.971 45.9918 68.0003 42.37H69.9572Z" fill="white"/>
<path fill-rule="evenodd" clip-rule="evenodd" d="M24 28C25.1046 28 26 28.8954 26 30V42.5C26 43.3284 26.6716 44 27.5 44C28.3284 44 29 43.3284 29 42.5V30C29 28.8954 29.8954 28 31 28L43.5 28C44.3284 28 45 27.3284 45 26.5C45 25.6716 44.3284 25 43.5 25L31 25C29.8954 25 29 24.1046 29 23V10.5C29 9.67157 28.3284 9 27.5 9C26.6716 9 26 9.67157 26 10.5V23C26 24.1046 25.1046 25 24 25L11.5 25C10.6716 25 10 25.6716 10 26.5C10 27.3284 10.6716 28 11.5 28L24 28Z" fill="black"/>
</svg>