<svg width="26" height="22" viewBox="0 0 26 22" fill="none" xmlns="http://www.w3.org/2000/svg">
<g id="Group">
<path id="Layer 6" d="M23.2143 0.40741H2.78571C2.0469 0.40741 1.33834 0.726992 0.815917 1.29585C0.293494 1.86471 0 2.63625 0 3.44074V18.5593C0 19.3637 0.293494 20.1353 0.815917 20.7041C1.33834 21.273 2.0469 21.5926 2.78571 21.5926H23.2143C23.9531 21.5926 24.6617 21.273 25.1841 20.7041C25.7065 20.1353 26 19.3637 26 18.5593V3.44074C26 2.63625 25.7065 1.86471 25.1841 1.29585C24.6617 0.726992 23.9531 0.40741 23.2143 0.40741ZM22.6943 2.42963L13.5943 11.6534C13.4274 11.8047 13.2172 11.8876 13 11.8876C12.7829 11.8876 12.5726 11.8047 12.4057 11.6534L3.30571 2.42963H22.6943ZM23.2143 19.5704H2.78571C2.53944 19.5704 2.30326 19.4638 2.12912 19.2742C1.95497 19.0846 1.85714 18.8274 1.85714 18.5593V3.74408L11.2171 13.2004C11.7177 13.6544 12.3485 13.903 13 13.903C13.6515 13.903 14.2823 13.6544 14.7829 13.2004L24.1429 3.74408V18.5593C24.1429 18.8274 24.045 19.0846 23.8709 19.2742C23.6967 19.4638 23.4606 19.5704 23.2143 19.5704Z" fill="#757575"/>
</g>
</svg>
