<svg width="26" height="26" viewBox="0 0 26 26" fill="none" xmlns="http://www.w3.org/2000/svg">
<g id="fi-rr-search" clip-path="url(#clip0_1_314)">
<g id="Group">
<g id="Layer 2">
<path id="Vector" d="M13.0081 25.9997C10.8284 26.0137 8.68101 25.4727 6.76814 24.4277C6.72982 24.4117 6.68872 24.4035 6.64721 24.4035C6.6057 24.4035 6.5646 24.4117 6.52628 24.4277L2.25747 25.6369C1.9962 25.7201 1.71714 25.73 1.45064 25.6656C1.18413 25.6012 0.940379 25.465 0.745887 25.2717C0.551394 25.0785 0.413605 24.8356 0.347504 24.5695C0.281402 24.3035 0.289518 24.0243 0.370969 23.7625L1.65282 19.4695C1.68066 19.3955 1.68066 19.3138 1.65282 19.2398C0.341828 16.8437 -0.181178 14.0955 0.158035 11.3854C0.497247 8.67526 1.68144 6.14081 3.54255 4.14175C5.40366 2.1427 7.84712 0.780608 10.5261 0.248808C13.2052 -0.282991 15.9836 0.0425155 18.4672 1.17913C20.9507 2.31574 23.0132 4.20572 24.3619 6.58081C25.7105 8.9559 26.2768 11.6954 25.9805 14.4106C25.6841 17.1258 24.5401 19.6786 22.7107 21.7068C20.8814 23.735 18.4598 25.1355 15.7895 25.7095C14.8745 25.8997 13.9426 25.9969 13.0081 25.9997ZM6.61093 22.5291C6.96995 22.534 7.32251 22.6252 7.63883 22.7951C9.20379 23.6533 10.9514 24.1246 12.7357 24.1696C14.52 24.2146 16.2891 23.832 17.8953 23.0537C19.5016 22.2754 20.8982 21.124 21.9686 19.6958C23.0391 18.2676 23.7522 16.6039 24.0484 14.8438C24.3447 13.0837 24.2154 11.2783 23.6715 9.57834C23.1276 7.87839 22.1848 6.33328 20.9218 5.07207C19.6589 3.81086 18.1125 2.87018 16.4118 2.3286C14.7111 1.78703 12.9055 1.66028 11.1458 1.95895C9.3827 2.25187 7.71574 2.96388 6.28509 4.0351C4.85445 5.10632 3.70196 6.50543 2.92456 8.11475C2.14715 9.72407 1.76757 11.4965 1.81773 13.2831C1.86789 15.0696 2.34633 16.818 3.21281 18.3812C3.34906 18.6279 3.43522 18.8992 3.46635 19.1794C3.49747 19.4595 3.47296 19.7431 3.39421 20.0137L2.26956 23.7504L6.00628 22.6258C6.202 22.5641 6.40573 22.5315 6.61093 22.5291Z" fill="black"/>
<path id="Vector_2" d="M8.17171 15.0556C9.00656 15.0556 9.68333 14.3788 9.68333 13.544C9.68333 12.7091 9.00656 12.0323 8.17171 12.0323C7.33687 12.0323 6.6601 12.7091 6.6601 13.544C6.6601 14.3788 7.33687 15.0556 8.17171 15.0556Z" fill="black"/>
<path id="Vector_3" d="M13.009 15.0556C13.8438 15.0556 14.5206 14.3788 14.5206 13.544C14.5206 12.7091 13.8438 12.0323 13.009 12.0323C12.1742 12.0323 11.4974 12.7091 11.4974 13.544C11.4974 14.3788 12.1742 15.0556 13.009 15.0556Z" fill="black"/>
<path id="Vector_4" d="M17.8462 15.0556C18.6811 15.0556 19.3578 14.3788 19.3578 13.544C19.3578 12.7091 18.6811 12.0323 17.8462 12.0323C17.0114 12.0323 16.3346 12.7091 16.3346 13.544C16.3346 14.3788 17.0114 15.0556 17.8462 15.0556Z" fill="black"/>
</g>
</g>
</g>
<defs>
<clipPath id="clip0_1_314">
<rect width="26" height="26" fill="white"/>
</clipPath>
</defs>
</svg>
