<svg width="18" height="18" viewBox="0 0 18 18" fill="none" xmlns="http://www.w3.org/2000/svg">
<g id="fi-rr-graduation-cap" clip-path="url(#clip0_1_326)">
<path id="Vector" d="M16.5426 3.92236L11.0121 1.28761C9.7947 0.560439 8.27946 0.547536 7.04984 1.25386L1.45711 3.92236C1.43613 3.93287 1.41436 3.94412 1.39411 3.95611C0.0668948 4.71499 -0.393863 6.40611 0.36502 7.73333C0.622258 8.18326 1.00064 8.55191 1.45711 8.79737L2.99987 9.53238V13.2074C3.00079 14.8507 4.07007 16.3025 5.63912 16.7909C6.73104 17.1068 7.86325 17.2614 8.99989 17.2499C10.1363 17.2626 11.2686 17.1093 12.3606 16.7946C13.9297 16.3063 14.999 14.8544 14.9999 13.2111V9.53087L16.4999 8.81386V14.9998C16.4999 15.4141 16.8357 15.7498 17.2499 15.7498C17.6641 15.7498 17.9999 15.4141 17.9999 14.9998V5.99985C18.0049 5.11915 17.3095 4.30556 16.5426 3.92236ZM13.4999 13.2111C13.5002 14.1941 12.8625 15.0635 11.9249 15.3584C10.974 15.6301 9.98869 15.7619 8.99985 15.7499C8.01101 15.7619 7.02569 15.6301 6.07485 15.3584C5.1372 15.0635 4.49946 14.1941 4.49985 13.2111V10.2471L6.98761 11.4322C7.60144 11.7967 8.30249 11.9882 9.01637 11.9864C9.69587 11.9912 10.3639 11.8113 10.9491 11.4659L13.4999 10.2471V13.2111ZM15.8999 7.44361L10.2434 10.1436C9.45467 10.6029 8.47708 10.5898 7.70086 10.1099L2.1666 7.47736C1.54971 7.14471 1.3193 6.37497 1.65195 5.75811C1.76445 5.5495 1.93313 5.37656 2.13886 5.25886L7.7601 2.57387C8.54904 2.11565 9.5261 2.12862 10.3026 2.60762L15.8331 5.24237C16.2398 5.46822 16.4943 5.8947 16.4998 6.35988C16.5006 6.80053 16.2737 7.21031 15.8999 7.44361Z" fill="black"/>
</g>
<defs>
<clipPath id="clip0_1_326">
<rect width="18" height="18" fill="white"/>
</clipPath>
</defs>
</svg>
